<?xml version="1.0" standalone="no"?>
<!DOCTYPE svg PUBLIC "-//W3C//DTD SVG 20010904//EN"
 "http://www.w3.org/TR/2001/REC-SVG-20010904/DTD/svg10.dtd">
<svg version="1.0" xmlns="http://www.w3.org/2000/svg"
 width="837.000000pt" height="581.000000pt" viewBox="0 0 837.000000 581.000000"
 preserveAspectRatio="xMidYMid meet">
<metadata>
Created by potrace 1.15, written by Peter Selinger 2001-2017
</metadata>
<g transform="translate(0.000000,581.000000) scale(0.100000,-0.100000)"
fill="#000000" stroke="none">
<path d="M3775 5519 c-555 -43 -979 -202 -1266 -476 -142 -136 -263 -320 -275
-418 -8 -72 14 -481 36 -652 66 -513 232 -966 503 -1373 146 -219 309 -415
593 -714 104 -110 222 -236 263 -280 40 -45 80 -82 87 -84 12 -3 14 54 14 340
l0 344 -142 146 c-96 97 -162 156 -200 178 -32 17 -60 35 -62 38 -2 4 13 36
33 72 20 36 46 89 58 118 22 51 49 169 42 176 -2 2 -25 6 -51 9 l-46 6 -17
-69 -17 -70 -44 0 -44 0 0 161 c0 143 2 160 16 155 9 -3 36 -6 61 -6 44 0 45
0 39 -30 -3 -16 -9 -43 -12 -60 l-6 -30 56 0 c30 0 57 3 59 8 3 4 8 98 12 210
l7 202 -55 0 -54 0 -7 -62 c-3 -34 -7 -62 -9 -63 -1 -1 -23 -5 -49 -7 -47 -5
-48 -5 -53 26 -8 55 -27 257 -23 260 1 2 33 6 70 8 l67 6 6 -64 c7 -62 8 -64
35 -64 58 0 57 -5 59 205 l2 195 -46 0 c-28 0 -47 -5 -50 -12 -2 -7 -9 -32
-15 -55 l-11 -43 -49 0 -50 0 0 140 c0 153 -1 151 62 154 30 1 32 -2 43 -44 9
-38 16 -46 43 -54 18 -5 35 -6 38 -3 4 4 -12 86 -35 184 l-41 178 21 17 c34
29 280 174 375 221 140 71 195 85 361 98 81 6 178 8 215 4 73 -7 181 -48 306
-115 81 -45 327 -204 336 -218 3 -5 -13 -88 -35 -186 -23 -98 -38 -180 -35
-183 3 -3 20 -2 38 3 27 8 34 16 43 54 11 42 13 45 43 44 63 -3 62 -1 62 -154
l0 -140 -50 0 -49 0 -11 43 c-6 23 -13 48 -15 55 -3 7 -22 12 -50 12 l-45 0 0
-184 c0 -101 3 -191 6 -200 4 -11 19 -16 44 -16 l38 0 7 64 6 64 67 -6 c37 -2
69 -6 70 -8 4 -2 -14 -204 -23 -259 -5 -29 -6 -30 -54 -27 -47 4 -49 5 -55 40
-3 21 -6 49 -6 65 0 26 -2 27 -56 27 l-56 0 7 -202 c4 -112 9 -206 12 -210 2
-5 29 -8 59 -8 l56 0 -6 30 c-3 17 -9 44 -12 60 -6 30 -5 30 39 30 25 0 52 3
61 6 14 5 16 -12 16 -155 l0 -161 -44 0 -44 0 -17 70 -17 69 -46 -6 c-26 -3
-49 -7 -51 -9 -2 -1 4 -37 12 -79 11 -51 34 -110 70 -180 59 -112 59 -109 -3
-140 -52 -26 -139 -105 -245 -221 l-95 -104 0 -346 c0 -190 3 -344 8 -342 12
5 431 436 513 528 434 486 721 1008 849 1545 60 248 74 381 74 700 1 393 0
403 -77 518 -80 120 -236 276 -354 355 -286 189 -606 277 -1245 342 -204 21
-399 24 -593 9z"/>
<path d="M2129 1368 c0 -35 0 -84 1 -109 1 -47 -19 -110 -44 -139 -8 -8 -21
-46 -29 -85 l-15 -70 -1 64 c-1 53 -3 62 -17 57 -9 -3 -20 -6 -25 -6 -5 0 -9
-12 -10 -27 0 -16 -4 -37 -9 -48 -7 -15 -9 -10 -9 23 -1 47 -20 64 -52 44 -11
-7 -19 -8 -21 -1 -2 5 -19 14 -38 18 -19 4 -45 11 -57 15 -23 7 -23 6 -23 -83
l0 -91 40 0 c58 0 103 -46 224 -229 104 -158 139 -195 218 -231 47 -22 131
-26 189 -10 32 9 37 16 57 72 12 35 22 66 22 69 0 3 -18 1 -40 -4 -76 -21
-110 10 -218 198 -46 81 -59 94 -127 129 l-50 25 34 7 34 7 -6 141 c-4 78 -7
183 -7 234 0 54 -4 92 -10 92 -6 0 -10 -28 -11 -62z"/>
<path d="M6323 1406 c-7 -8 -15 -64 -19 -130 -4 -63 -10 -113 -14 -111 -4 3
-10 28 -14 56 -4 28 -10 49 -13 45 -3 -3 -11 -54 -18 -113 -10 -88 -13 -97
-14 -52 -3 134 -20 215 -34 162 -3 -11 -5 -7 -6 10 0 15 -5 27 -10 27 -5 0
-10 -71 -10 -162 -1 -201 -10 -303 -27 -325 -11 -15 -14 21 -16 232 l-3 250
-2 -235 c-3 -226 -4 -235 -26 -258 -42 -46 -89 -68 -147 -71 -67 -3 -90 -21
-90 -71 0 -30 -5 -39 -25 -48 -14 -7 -28 -12 -30 -12 -3 0 -5 38 -5 83 0 71
-3 87 -20 102 -20 18 -20 17 -20 -88 l0 -107 104 0 c97 0 159 12 239 45 15 6
17 1 17 -44 l0 -52 123 3 122 3 2 225 c4 287 -9 642 -22 646 -5 2 -15 -3 -22
-10z"/>
<path d="M2247 1361 c-4 -18 -8 -61 -8 -95 -1 -33 -3 -52 -6 -41 -12 50 -21
25 -37 -106 -9 -78 -15 -144 -12 -147 3 -3 24 3 46 13 l40 18 -1 126 c-1 69
-4 158 -8 196 -5 62 -7 66 -14 36z"/>
<path d="M5656 1278 c-3 -29 -6 -98 -7 -153 -1 -55 -3 -92 -6 -82 -5 20 -26
22 -41 5 -5 -7 -13 -80 -16 -163 -4 -82 -9 -169 -13 -193 -5 -42 -5 -42 38
-61 24 -11 60 -22 79 -26 l36 -6 -3 123 c-2 68 -4 216 -6 329 -3 193 -4 207
-26 242 -12 20 -24 37 -25 37 -2 0 -6 -24 -10 -52z"/>
<path d="M2827 1248 c-4 -29 -10 -99 -13 -155 -4 -57 -9 -103 -12 -103 -3 0
-14 8 -25 17 -18 17 -19 17 -33 -2 -8 -10 -14 -33 -14 -49 -1 -47 -16 -12 -24
54 -12 101 -22 82 -35 -67 -19 -227 -23 -256 -32 -241 -6 9 -9 3 -9 -17 0 -39
-10 -76 -19 -71 -4 3 -7 -11 -7 -30 0 -30 4 -35 31 -40 17 -3 73 -4 125 -2
l95 3 -4 370 c-2 350 -10 453 -24 333z"/>
<path d="M4873 1258 c-13 -6 -23 -20 -23 -32 0 -12 -7 -133 -15 -271 -8 -137
-15 -260 -15 -273 0 -24 51 -62 84 -62 18 0 19 8 13 218 -4 119 -7 265 -7 325
0 59 -3 107 -7 106 -5 0 -18 -5 -30 -11z"/>
<path d="M4033 1169 l-6 -31 -13 28 c-7 16 -13 25 -13 19 -9 -82 -28 -562 -22
-568 4 -4 24 -10 44 -14 l37 -6 0 105 c0 71 -5 117 -15 141 -9 22 -15 68 -15
118 0 71 2 80 15 69 13 -11 15 -1 15 79 0 91 -14 123 -27 60z"/>
<path d="M3862 1146 c-7 -15 -12 -105 -13 -233 l-1 -207 33 -28 c18 -15 34
-26 36 -24 4 4 -17 465 -23 494 -6 29 -18 28 -32 -2z"/>
<path d="M3083 1139 c-8 -10 -14 -85 -19 -219 -4 -113 -11 -213 -15 -222 -7
-12 -1 -23 22 -42 17 -14 35 -26 40 -26 9 0 4 203 -10 424 -5 79 -8 96 -18 85z"/>
<path d="M4456 1112 c-3 -6 -9 -47 -13 -91 -3 -45 -10 -81 -14 -81 -5 0 -10 6
-11 13 -3 28 -16 -187 -17 -296 l-1 -118 55 2 c31 1 57 5 59 8 2 3 -3 114 -10
246 -7 132 -13 252 -13 266 -1 31 -25 67 -35 51z"/>
<path d="M4317 1043 c-3 -5 -9 -40 -13 -76 -5 -51 -10 -65 -19 -57 -18 15 -49
-103 -34 -131 8 -15 8 -24 0 -32 -14 -14 -15 -147 0 -147 6 0 19 5 30 10 17
10 19 7 19 -24 0 -31 19 -53 34 -39 3 4 6 112 6 242 0 213 -6 281 -23 254z"/>
<path d="M5218 1020 c-7 -19 -28 -177 -28 -213 0 -18 -4 -25 -13 -21 -10 3
-17 -17 -26 -77 -7 -44 -10 -83 -7 -86 3 -3 25 5 50 17 l46 22 -1 86 c-2 129
-14 289 -21 272z"/>
<path d="M5509 980 c-23 -31 -27 -48 -32 -138 l-6 -102 30 -35 c17 -19 35 -35
40 -35 10 0 10 192 0 285 l-6 60 -26 -35z"/>
<path d="M3410 797 l0 -188 31 18 c17 10 35 23 40 29 5 6 6 60 2 125 -6 105
-7 112 -19 84 -7 -16 -14 -52 -15 -80 -2 -82 -17 -14 -18 85 -1 47 -6 92 -11
100 -6 10 -10 -48 -10 -173z"/>
<path d="M3180 831 c0 -11 -9 -42 -19 -68 -10 -27 -20 -71 -22 -98 l-4 -50 45
-12 c25 -6 60 -12 78 -12 l32 -1 0 65 c0 61 -2 65 -29 79 -26 14 -61 68 -61
94 0 6 -4 14 -10 17 -5 3 -10 -3 -10 -14z"/>
</g>
</svg>
